<svg width="400" height="400" viewBox="0 0 400 400" fill="none" xmlns="http://www.w3.org/2000/svg">
<path fill-rule="evenodd" clip-rule="evenodd" d="M200.2 114.894V130.736C200.2 135.504 200.143 140.087 200.09 144.369C200.003 151.399 199.926 157.62 200.126 162.519C200.433 170.038 201.346 179.906 207.939 187.645C215.146 196.104 225.669 198.283 234.14 199.165C242.229 200.007 252.866 200.004 265.511 199.999L266.838 199.999C267.311 199.999 267.787 199.999 268.265 199.999H285.106V168.315L267.144 168.315C252.898 168.315 244.013 168.315 237.846 167.673C236.244 167.506 235.115 167.319 234.346 167.158C234.152 166.113 233.906 164.289 233.784 161.303C233.612 157.07 233.676 152.253 233.758 146.067V146.065L233.758 146.063C233.816 141.719 233.883 136.7 233.883 130.736V114.894H200.2ZM232.931 166.773C232.934 166.774 232.939 166.776 232.945 166.779L232.934 166.774L232.931 166.773Z" fill="#F5F5F5"/>
<path fill-rule="evenodd" clip-rule="evenodd" d="M199.8 285.106V269.264C199.8 264.497 199.857 259.914 199.91 255.631V255.63C199.997 248.6 200.074 242.38 199.874 237.481C199.567 229.962 198.654 220.094 192.061 212.355C184.854 203.896 174.331 201.717 165.86 200.835C157.771 199.993 147.133 199.996 134.487 200.001C133.58 200.001 132.663 200.001 131.735 200.001L114.894 200.001L114.894 231.685L132.856 231.685C147.102 231.685 155.987 231.685 162.154 232.327C163.756 232.494 164.885 232.681 165.654 232.842C165.848 233.887 166.094 235.711 166.216 238.697C166.388 242.93 166.324 247.748 166.242 253.935C166.184 258.279 166.118 263.299 166.118 269.264L166.117 285.106H199.8ZM167.066 233.226C167.063 233.225 167.06 233.223 167.055 233.221L167.066 233.226L167.074 233.23C167.074 233.23 167.072 233.228 167.066 233.226Z" fill="#F5F5F5"/>
<path fill-rule="evenodd" clip-rule="evenodd" d="M200 400C310.457 400 400 310.457 400 200C400 89.5431 310.457 0 200 0C89.5431 0 0 89.5431 0 200C0 310.457 89.5431 400 200 400ZM348.936 200C348.936 282.255 282.255 348.936 200 348.936C117.745 348.936 51.0638 282.255 51.0638 200C51.0638 117.745 117.745 51.0638 200 51.0638C282.255 51.0638 348.936 117.745 348.936 200Z" fill="#F5F5F5"/>
</svg>
