<svg width="40" height="40" viewBox="0 0 40 40" fill="none" xmlns="http://www.w3.org/2000/svg">
<path fill-rule="evenodd" clip-rule="evenodd" d="M20.02 11.4894V13.0736C20.02 13.5504 20.0143 14.0087 20.009 14.4369C20.0003 15.1399 19.9926 15.762 20.0126 16.2519C20.0433 17.0038 20.1346 17.9906 20.7939 18.7645C21.5146 19.6104 22.5669 19.8283 23.414 19.9165C24.2229 20.0007 25.2866 20.0004 26.5511 19.9999L26.6838 19.9999C26.7311 19.9999 26.7787 19.9999 26.8265 19.9999H28.5106V16.8315L26.7144 16.8315C25.2898 16.8315 24.4013 16.8315 23.7846 16.7673C23.6244 16.7506 23.5115 16.7319 23.4346 16.7158C23.4152 16.6113 23.3906 16.4289 23.3784 16.1303C23.3612 15.707 23.3676 15.2253 23.3758 14.6067V14.6065L23.3758 14.6063C23.3816 14.1719 23.3883 13.67 23.3883 13.0736V11.4894H20.02ZM23.2931 16.6773C23.2934 16.6774 23.2939 16.6776 23.2945 16.6779L23.2934 16.6774L23.2931 16.6773Z" fill="#101010"/>
<path fill-rule="evenodd" clip-rule="evenodd" d="M19.98 28.5106V26.9264C19.98 26.4497 19.9857 25.9914 19.991 25.5631V25.563C19.9997 24.86 20.0074 24.238 19.9874 23.7481C19.9567 22.9962 19.8654 22.0094 19.2061 21.2355C18.4854 20.3896 17.4331 20.1717 16.586 20.0835C15.7771 19.9993 14.7133 19.9996 13.4487 20.0001C13.358 20.0001 13.2663 20.0001 13.1735 20.0001L11.4894 20.0001L11.4894 23.1685L13.2857 23.1685C14.7102 23.1685 15.5987 23.1685 16.2154 23.2327C16.3756 23.2494 16.4885 23.2681 16.5654 23.2843C16.5848 23.3887 16.6094 23.5711 16.6216 23.8697C16.6388 24.293 16.6324 24.7748 16.6242 25.3935C16.6184 25.8279 16.6118 26.3299 16.6118 26.9264L16.6117 28.5106H19.98ZM16.7066 23.3226C16.7064 23.3225 16.706 23.3223 16.7055 23.3221L16.7066 23.3226L16.7074 23.323C16.7074 23.323 16.7072 23.3228 16.7066 23.3226Z" fill="#101010"/>
<path fill-rule="evenodd" clip-rule="evenodd" d="M20 40C31.0457 40 40 31.0457 40 20C40 8.95431 31.0457 0 20 0C8.95431 0 0 8.95431 0 20C0 31.0457 8.95431 40 20 40ZM34.8936 20C34.8936 28.2255 28.2255 34.8936 20 34.8936C11.7745 34.8936 5.10638 28.2255 5.10638 20C5.10638 11.7745 11.7745 5.10638 20 5.10638C28.2255 5.10638 34.8936 11.7745 34.8936 20Z" fill="#101010"/>
</svg>
